<svg xmlns="http://www.w3.org/2000/svg" viewBox="0 0 572.6 314.3" width="572.6" height="314.3">

  <rect width="572.6" height="314.3" fill="#0f0f0f" />


  <g id="top-section">
    <path d="M561.05,308.269h2.648c1.668,0,3.02,1.352,3.02,3.02c0,1.668-1.352,3.02-3.02,3.02h-63.314h-18.524H381.764c0,0-0.001,0-0.002,0h-0.471h-2.016h-1.853v0H0L81.906,0h0.827v0h377.423h0l16.128,61.889h0l12.895,49.483l0.509,1.952l3.951,15.162c0.442,0.117,0.883,0.215,1.328,0.355c13.774,4.312,18.868,15.934,23.006,27.336c1.417-0.641,2.985-1.007,4.642-1.007c6.231,0,11.281,5.051,11.281,11.281c0,5.486-3.918,10.054-9.108,11.067c5.19,1.014,9.108,5.581,9.108,11.068c0,5.67-4.188,10.35-9.636,11.148c6.584,2.537,12.813,5.888,16.705,10.251c15.755,17.661,31.664,68.782,31.663,83.485C572.626,302.844,565.313,308.194,561.05,308.269z"
        fill="#e11168" />
  </g>

  
  <g id="middle-section">
    <path d="M533.895,188.586c0,5.67-4.188,10.35-9.636,11.148c-3.185-1.227-6.449-2.265-9.577-3.13c-0.011-0.003-0.022-0.006-0.033-0.009c-6.337-1.751-12.088-2.804-15.403-3.333c-1.854-0.296-2.954-0.43-2.954-0.43l0.351-6.045l-3.559-14.255c1.675-0.726,3.367-1.899,4.859-3.797c2.959-3.763,2.592-10.733-4.315-11.903c-4.054-0.687-7.22,0.838-9.153,2.215c-6.34-2.768-16.071-8.958-19.176-21.577c0.087-0.164,0.203-0.326,0.301-0.489c0.185-0.31,0.377-0.618,0.6-0.924c2.625-3.596,7.819-6.851,14.249-8.082c4.026-0.771,8.535-0.72,13.19,0.511c0.442,0.117,0.883,0.215,1.328,0.355c13.774,4.312,18.868,15.934,23.006,27.336c1.417-0.641,2.985-1.007,4.642-1.007c6.231,0,11.281,5.051,11.281,11.281c0,5.486-3.918,10.054-9.108,11.067C529.977,178.532,533.895,183.099,533.895,188.586zM151.236,262.874l-12.647-48.532l-0.509-1.952l-12.647-48.532l-0.509-1.952l-12.669-48.616l-0.391-1.502L98.861,61.889l-0.679-2.605L82.733,0h-0.827L0,314.309h164.639v0l-12.895-49.483L151.236,262.874z"
        fill="#000f37" />
  </g>


  <g id="bottom-section">
    <path d="M563.699,308.269h-2.648h-62.709l-8.206-24.254l-15.725-46.478c-0.761-2.249-2.871-3.763-5.245-3.763h-24.119h-30.773l-5.064-19.433h16.997c-0.617-0.66-1.239-1.326-1.866-2.002h-15.653l-6.801-26.098c-1.15-1.51-2.223-2.972-3.208-4.377l7.941,30.476h-51.85l-12.634-48.482h46.978c-0.279-0.656-0.558-1.328-0.838-2.002h-45.21l31.212-38.85c-0.254-0.78-0.5-1.538-0.739-2.277l-32.199,40.078l-12.36-47.432H371.2c-0.228-0.727-0.435-1.39-0.625-2.002h-41.252l38.499-47.921l2.336,8.965l-4.373,2.552c-3.295,1.923-5.168,5.588-4.796,9.385l0.396,4.041c0.3,3.063,1.191,6.039,2.622,8.764l5.301,10.09l0,0l25.17-2.655l1.884-9.076l25.471-31.704l12.394,47.561h-35.502l1.253,2.002h33.295l-18.67,23.357l1.126,1.798l19.287-24.13l12.366,47.456h-14.839c0.703,0.694,1.455,1.338,2.187,2.002h13.173l3.74,14.354l2.647,2.226l-4.32-16.58h4.456l0.411,0.534c0.983,1.278,1.387,2.909,1.117,4.498l-1.413,8.303c-0.336,1.974,0.457,3.907,1.947,5.092l0.004,0.004c0.497,0.394,1.071,0.706,1.707,0.908l6.556,1.718c2.611,0.684,4.402,3.081,4.319,5.779l-0.065,2.12l0.022,0.019h27.26l0.351-6.045l-3.559-14.255c1.675-0.726,3.367-1.899,4.859-3.797c2.959-3.763,2.592-10.733-4.315-11.903c-4.054-0.687-7.22,0.838-9.153,2.215c-6.34-2.768-16.071-8.958-19.176-21.577c-0.606,1.043-1.122,2.123-1.463,3.196c-1.253,3.941-1.653,7.498-2.104,9.869c-0.495,2.602-4.561,5.08-7.834,6.56c-1.766,0.799-2.062,3.173-0.979,4.761h-3.468l-12.633-48.481h52.624c-0.088,0-0.166,0.029-0.247,0.05l-0.509-1.952h-52.878c-0.003-0.003-0.006-0.008-0.009-0.011L423.4,61.889h-0.32h-2.269l-23.554,29.318l0.639-3.077c0.78-3.756-0.904-7.594-4.195-9.564l-4.051-2.425l-2.932-6.159c-1.449-3.044-5.191-4.198-8.102-2.499l-6.663,3.888l-2.47-9.481h-0.703h-2.269l-38.468,47.882l-12.477-47.882h-0.478h-2.269l-38.638,48.093l-12.532-48.093h-0.049h-2.269l-38.962,48.497l-12.57-48.238l0.207-0.259h-2.563l-38.627,48.325l-12.593-48.325h-2.069l12.895,49.483h-52.393c-0.33,0-0.608,0.17-0.79,0.415l0.391,1.502c0.123,0.053,0.257,0.085,0.399,0.085h52.915l12.634,48.481h-53.031c-0.088,0-0.167,0.029-0.248,0.05l0.509,1.952h53.292l12.634,48.482h-53.031c-0.088,0-0.167,0.029-0.248,0.05l0.509,1.952h53.292l12.634,48.482h-53.031c-0.088,0-0.167,0.029-0.248,0.05l0.509,1.952h53.292l12.895,49.483H220l-12.895-49.483h51.439l12.895,49.483h2.017c0-0.084,0.008-0.167-0.014-0.252l-12.829-49.231h51.849l12.895,49.483h2.016c0-0.084,0.008-0.167-0.015-0.252l-12.829-49.231h46.52l15.468,45.721c0.453,1.34,1.392,2.41,2.574,3.063l0.182,0.7h2.016c0-0.012-0.002-0.025-0.002-0.038c0.158,0.014,0.313,0.038,0.473,0.038c0,0,0.001,0,0.002,0h100.097h18.524h63.314c1.668,0,3.02-1.352,3.02-3.02C566.719,309.622,565.367,308.269,563.699,308.269zM352.703,212.34h-51.85l-12.634-48.482h51.85L352.703,212.34zM298.785,212.34h-51.849l-12.634-48.482h51.849L298.785,212.34zM339.548,161.855h-50.781l38.344-47.728L339.548,161.855zM313.96,63.663l12.432,47.71h-50.761L313.96,63.663zM325.147,113.374l-37.817,47.072l-12.266-47.072H325.147zM285.629,161.855h-50.555l38.173-47.515L285.629,161.855zM260.146,64.068l12.327,47.304h-50.33L260.146,64.068zM271.455,113.374l-37.987,47.283l-12.322-47.283H271.455zM206.237,64.1l12.319,47.272h-50.105L206.237,64.1zM167.638,113.374h50.329l-38.002,47.303L167.638,113.374zM181.587,161.855l37.848-47.111l12.277,47.111H181.587zM206.583,262.824l-12.634-48.482h51.44l12.634,48.482H206.583zM260.092,262.824l-12.634-48.482h51.849l12.634,48.482H260.092zM314.009,262.824l-12.634-48.482h51.85l5.064,19.433H354.8c-2.089,0-3.561,2.051-2.891,4.03l8.464,25.019H314.009zM360.356,233.775l-5.064-19.433h51.85l5.064,19.433H360.356zM422.68,282.34c-4.583,0-8.298-3.715-8.298-8.298c0-4.583,3.715-8.298,8.298-8.298c4.583,0,8.298,3.715,8.298,8.298C430.978,278.625,427.263,282.34,422.68,282.34z"
        fill="#ffffffff" />
  </g>

>
  <g id="details">
    <path d="M540.964,209.985c-3.892-4.363-10.121-7.714-16.705-10.251c-3.185-1.227-6.449-2.265-9.577-3.13c-0.011-0.003-0.022-0.006-0.033-0.009c-6.337-1.751-12.088-2.804-15.403-3.333c-1.854-0.296-2.954-0.43-2.954-0.43h-27.26l-0.022-0.019l-12.516-10.525l-0.004-0.004l-2.197-1.848l-2.647-2.226l-15.012-12.624c-0.657-0.552-1.266-1.154-1.901-1.73c-0.733-0.664-1.484-1.308-2.187-2.002c-3.831-3.782-7.218-7.998-10.082-12.572l-6.733-10.754l-1.126-1.798l-14.624-23.357l-1.253-2.002l-4.246-6.781l-25.17,2.655l0,0c0,0.001,0.462,1.536,1.266,4.125c0.19,0.612,0.397,1.275,0.625,2.002c0.644,2.056,1.435,4.549,2.34,7.354c0.239,0.739,0.485,1.497,0.739,2.277c3.671,11.269,8.893,26.537,13.998,38.85c0.28,0.675,0.559,1.346,0.838,2.002c2.166,5.095,4.293,9.584,6.252,12.92c0.923,1.572,2.049,3.285,3.312,5.087c0.985,1.405,2.057,2.867,3.208,4.377c6.257,8.211,14.692,17.735,22.454,26.098c0.628,0.676,1.249,1.342,1.866,2.002c10.244,10.949,18.84,19.433,18.84,19.433h24.119c2.374,0,4.484,1.514,5.245,3.763l15.725,46.478l8.206,24.254h62.709c4.263-0.076,11.575-5.426,11.576-14.8C572.629,278.767,556.719,227.646,540.964,209.985zM528.19,283.419l-0.004-0.439c0.055,0.194,0.093,0.341,0.093,0.382C528.279,283.382,528.228,283.4,528.19,283.419z"
        fill="rgba(224, 108, 0, 1)" />
  </g>

  <g id="base-section">
    <path d="M476.284,61.889L476.284,61.889H423.4h-0.32h-2.269h-51.329h-0.703h-2.269h-50.945h-0.478h-2.269h-51.17h-0.049h-2.269h-51.325h-2.563h-51.22h-2.069H98.861l-0.679-2.605L82.733,0h377.423h0L476.284,61.889z"
        fill="#3b3b3b2d" />
  </g>
</svg>

